#!OML:ASF F:\VICON\USERDATA\INSTALL\rory3\rory3.ASF
:FULLY-SPECIFIED
:DEGREES
591
root -0.407852 16.9718 30.2067 11.3727 -5.73851 -7.44288
lowerback -7.90282 3.28038 8.29878
upperback -4.75352 3.80411 1.14103
thorax -0.0815896 1.7616 -3.15005
lowerneck -15.615 -3.59794 -6.69667
upperneck 27.3967 -4.77446 5.0954
head 11.8507 -2.20826 2.33439
rclavicle -2.637e-014 -2.38542e-015
rhumerus -32.422 6.86986 -89.7843
rradius 38.1877
rwrist -0.0663189
rhand -25.9526 -47.7907
rfingers 7.12502
rthumb 0.591524 -77.7696
lclavicle -2.637e-014 -2.38542e-015
lhumerus -47.1772 -0.853069 83.1172
lradius 31.5258
lwrist 10.0435
lhand -32.7389 -28.2273
lfingers 7.12502
lthumb -5.96212 1.66879
rfemur -1.65695 10.2152 32.7142
rtibia 17.2356
rfoot -15.9831 -10.905
rtoes -4.81372
lfemur -41.4907 -5.89162 -7.95805
ltibia 22.6876
lfoot -7.98978 11.4934
ltoes -13.8258
592
root -0.380555 16.9714 30.3577 11.6653 -5.887 -7.1321
lowerback -8.36569 3.32707 8.31732
upperback -4.85622 3.82211 0.957607
thorax 0.0806031 1.77105 -3.32722
lowerneck -12.9651 -2.75258 -7.56737
upperneck 25.3012 -3.882 6.75088
head 10.5131 -1.73004 3.2056
rclavicle 1.85118e-014 -5.66536e-015
rhumerus -32.6556 6.70302 -89.9451
rradius 37.913
rwrist 0.352979
rhand -26.5071 -47.3944
rfingers 7.12502
rthumb 0.0559259 -77.3741
lclavicle 1.85118e-014 -5.66536e-015
lhumerus -47.174 -0.853189 83.0994
lradius 32.8
lwrist 11.6813
lhand -31.6881 -20.5962
lfingers 7.12502
lthumb -4.94758 9.32608
rfemur -1.09947 9.8164 32.0873
rtibia 16.6132
rfoot -15.873 -10.2855
rtoes -6.14148
lfemur -41.7035 -6.12113 -8.24539
ltibia 22.7141
lfoot -8.02454 11.3027
ltoes -11.402
593
root -0.34384 16.969 30.5115 11.7519 -5.50607 -6.81929
lowerback -8.56239 3.17896 8.43644
upperback -4.97029 3.6039 0.828605
thorax 0.0567896 1.65437 -3.54295
lowerneck -13.8812 -2.84803 -7.18157
upperneck 26.2508 -3.92956 6.14103
head 11.0315 -1.77252 2.92486
rclavicle 1.66047e-014 5.56597e-015
rhumerus -32.8959 6.49816 -90.005
rradius 37.7339
rwrist 0.357689
rhand -26.2689 -47.2761
rfingers 7.12502
rthumb 0.28606 -77.2557
lclavicle 1.66047e-014 5.56597e-015
lhumerus -47.2572 -0.943906 83.2623
lradius 31.8478
lwrist 11.0065
lhand -33.3638 -27.9344
lfingers 7.12502
lthumb -6.56543 1.94382
rfemur -0.4788 8.82377 31.5203
rtibia 16.2318
rfoot -16.0776 -9.49825
rtoes -6.03359
lfemur -41.7716 -6.38052 -8.83854
ltibia 22.7951
lfoot -8.52435 11.5836
ltoes -13.559
594
root -0.348807 16.945 30.6571 11.6659 -5.80619 -7.33105
lowerback -8.51742 3.26533 8.71737
upperback -4.91807 3.69733 1.0386
thorax 0.098758 1.70079 -3.47115
lowerneck -13.7572 -2.73466 -7.24659
upperneck 26.2028 -3.7809 6.22809
head 10.9795 -1.7028 2.98839
rclavicle -3.94153e-015 1.2921e-014
rhumerus -32.9206 6.31735 -90.0171
rradius 37.3356
rwrist 0.577203
rhand -25.7968 -47.7392
rfingers 7.12502
rthumb 0.742015 -77.7176
lclavicle -3.94153e-015 1.2921e-014
lhumerus -47.2008 -0.943416 83.3513
lradius 31.6096
lwrist 11.1643
lhand -33.2991 -28.8623
lfingers 7.12502
lthumb -6.50297 1.01782
rfemur 0.285222 9.80744 32.1605
rtibia 16.1327
rfoot -16.0775 -9.62562
rtoes -4.99524
lfemur -41.4273 -6.04913 -8.31824
ltibia 22.9039
lfoot -8.70863 12.1023
ltoes -13.9249
595
root -0.317568 16.9306 30.7832 11.8917 -5.75451 -7.13751
lowerback -9.01106 3.27261 8.87061
upperback -4.76812 3.63318 0.892612
thorax 0.536213 1.68567 -3.68496
lowerneck -15.457 -3.25195 -6.82323
upperneck 27.256 -4.38328 5.56257
head 11.7487 -1.9896 2.59067
rclavicle -4.37482e-014 8.15017e-015
rhumerus -32.6253 6.00614 -90.0281
rradius 36.9854
rwrist 1.07809
rhand -25.4156 -48.4195
rfingers 7.12502
rthumb 1.11015 -78.3964
lclavicle -4.37482e-014 8.15017e-015
lhumerus -46.7839 -0.849747 83.2557
lradius 31.7186
lwrist 10.7021
lhand -33.4363 -28.5876
lfingers 7.12502
lthumb -6.63541 1.28844
rfemur 0.50005 9.4781 31.7051
rtibia 16.0914
rfoot -16.1966 -8.8651
rtoes -4.84108
lfemur -41.6288 -5.9361 -8.80643
ltibia 23.2038
lfoot -9.16776 12.2334
ltoes -12.945
596
root -0.338983 16.9241 30.9634 11.813 -6.70657 -6.62586
lowerback -9.23946 3.39201 7.75414
upperback -4.90961 3.8631 0.870217
thorax 0.484868 1.81192 -3.0563
lowerneck -14.7175 -3.11113 -6.93502
upperneck 27.0829 -4.25177 5.76507
head 11.5286 -1.92902 2.70764
rclavicle 3.93469e-014 -4.96962e-016
rhumerus -33.3163 5.83623 -90.1751
rradius 36.7685
rwrist 1.4513
rhand -25.4249 -48.3015
rfingers 7.12502
rthumb 1.10122 -78.2785
lclavicle 3.93469e-014 -4.96962e-016
lhumerus -47.2804 -0.817626 83.2475
lradius 31.7694
lwrist 10.7581
lhand -33.6613 -30.1049
lfingers 7.12502
lthumb -6.85261 -0.235817
rfemur 1.16289 10.802 31.1825
rtibia 16.1637
rfoot -15.8025 -9.22837
rtoes -6.55538
lfemur -41.1023 -5.48024 -9.4282
ltibia 23.6695
lfoot -9.48234 12.5824
ltoes -14.4175
